<?xml version="1.0" standalone="no"?>
<!DOCTYPE svg PUBLIC "-//W3C//DTD SVG 20010904//EN"
 "http://www.w3.org/TR/2001/REC-SVG-20010904/DTD/svg10.dtd">
<svg version="1.0" xmlns="http://www.w3.org/2000/svg"
 width="640.000000pt" height="640.000000pt" viewBox="0 0 640.000000 640.000000"
 preserveAspectRatio="xMidYMid meet">

<g transform="translate(0.000000,640.000000) scale(0.100000,-0.100000)"
fill="#000000" stroke="none">
<path d="M0 3200 l0 -3200 100 0 99 0 10 33 c11 37 81 197 134 307 92 190 220
355 351 453 50 37 109 83 131 103 22 19 49 37 60 40 28 7 217 -13 247 -26 21
-9 200 -48 318 -70 25 -5 65 -19 90 -31 25 -12 77 -36 115 -54 157 -71 214
-101 215 -111 0 -7 -17 -24 -37 -40 -21 -15 -42 -33 -48 -39 -5 -6 -39 -36
-75 -65 -36 -30 -95 -85 -131 -123 l-66 -69 -94 3 c-157 5 -451 -1 -504 -11
-27 -6 -88 -17 -135 -26 -105 -20 -223 -59 -272 -90 -21 -13 -40 -24 -43 -24
-5 0 -214 -138 -229 -152 -6 -4 256 -8 580 -8 l590 0 21 43 c12 23 24 53 28
67 14 47 43 106 63 123 21 19 73 14 93 -9 6 -8 17 -14 23 -14 7 0 22 -11 34
-25 12 -14 27 -25 33 -25 6 0 8 -7 5 -16 -3 -8 -2 -12 3 -9 5 3 12 1 15 -4 4
-5 2 -12 -4 -16 -17 -11 0 -26 22 -19 13 4 18 2 14 -4 -3 -6 -2 -13 4 -17 5
-3 9 -18 9 -33 -1 -17 -3 -21 -6 -10 -5 20 -20 23 -42 9 -28 -18 -4 -41 43
-41 40 0 44 2 40 23 l-5 22 12 -22 12 -23 394 0 c216 0 393 2 393 4 0 11 -154
254 -197 311 -5 6 -21 29 -36 51 -63 93 -219 215 -397 311 -165 89 -851 399
-906 409 -19 3 -37 11 -40 16 -8 12 153 170 241 236 85 64 199 104 290 103
105 -1 287 -72 618 -244 211 -109 292 -163 371 -249 155 -167 355 -496 501
-826 8 -18 15 -39 15 -47 0 -7 8 -27 18 -44 l17 -31 1648 0 1647 0 0 3200 0
3200 -3200 0 -3200 0 0 -3200z m4160 2491 c0 -5 -16 -15 -36 -21 -48 -16 -30
-31 23 -19 69 15 354 -14 439 -45 l39 -15 -48 0 c-34 -1 -47 -5 -45 -13 3 -7
77 -66 166 -132 l162 -118 0 -86 c0 -82 1 -84 18 -69 10 10 28 17 40 17 44 0
80 -127 52 -181 -13 -23 -43 -25 -60 -4 -20 25 -30 17 -30 -23 0 -42 -22 -152
-39 -196 -15 -38 -10 -41 19 -11 13 14 32 25 42 25 26 0 24 -63 -7 -147 -13
-37 -22 -69 -21 -71 2 -2 17 14 32 35 96 131 157 151 104 34 -27 -59 -25 -67
11 -37 23 19 42 26 74 26 40 0 44 2 50 29 7 33 29 56 45 46 5 -3 10 -28 10
-56 0 -37 4 -49 15 -49 21 0 20 -161 0 -290 -16 -99 -79 -340 -98 -375 -6 -11
-12 -24 -12 -30 -3 -31 -18 -86 -25 -90 -11 -7 -17 16 -25 93 -7 64 4 82 25
41 7 -11 14 -19 16 -16 3 3 -10 26 -28 52 -52 74 -172 126 -245 106 -20 -6
-40 -8 -45 -5 -10 7 30 54 45 54 5 0 22 11 39 25 37 31 84 33 139 4 23 -11 43
-18 46 -15 9 9 -86 46 -117 46 -43 0 -44 14 -4 62 35 42 115 161 110 165 -1 1
-21 -4 -44 -10 -24 -7 -39 -16 -35 -21 4 -4 0 -4 -8 -1 -11 4 -18 -1 -22 -14
-3 -12 -10 -21 -16 -21 -6 0 -1 16 11 35 41 71 148 96 229 54 23 -11 44 -18
47 -15 3 4 -12 24 -33 46 -44 45 -83 57 -142 41 -33 -9 -50 -25 -106 -98 -37
-49 -95 -120 -130 -159 -87 -99 -96 -110 -148 -189 -67 -102 -73 -113 -107
-197 -38 -92 -40 -103 -11 -88 28 16 32 9 20 -37 -15 -55 -2 -114 42 -197 41
-76 54 -85 167 -111 66 -15 95 -4 124 46 l19 33 -30 -22 c-22 -16 -46 -22 -82
-22 -28 0 -51 3 -51 8 1 4 18 19 39 33 53 37 106 106 126 164 21 61 30 215 17
272 -11 48 -7 56 19 43 21 -12 117 -179 125 -219 3 -15 -3 -56 -14 -92 -11
-35 -23 -89 -26 -119 -39 -332 -64 -459 -117 -593 -65 -166 -99 -215 -254
-377 -60 -63 -147 -158 -192 -210 -78 -90 -173 -182 -252 -242 -32 -24 -45
-27 -111 -28 -88 0 -134 12 -295 74 -266 104 -527 223 -625 285 -97 62 -349
247 -419 308 -30 27 -63 54 -73 62 -31 21 -34 4 -5 -23 25 -23 39 -75 17 -61
-5 3 -10 11 -10 17 0 5 -9 21 -20 35 -11 15 -18 34 -15 44 4 11 -11 36 -45 75
-75 86 -73 85 -178 72 -125 -15 -160 -4 -281 90 -53 42 -117 96 -143 120 -53
50 -52 55 9 93 34 21 36 21 70 5 42 -20 53 -14 28 14 -20 22 -16 30 39 95 22
25 27 27 35 15 5 -8 20 -27 33 -42 25 -30 27 -34 113 -210 32 -65 65 -124 73
-130 14 -11 15 -10 7 7 -17 43 -18 75 -1 75 9 0 21 9 28 20 9 13 25 21 48 22
l35 1 -31 4 c-18 2 -40 13 -50 24 -9 10 -26 19 -37 19 -18 0 -19 5 -13 57 4
31 9 59 12 62 2 3 19 0 37 -7 29 -10 30 -10 13 3 -11 8 -26 15 -33 15 -9 0
-13 14 -13 40 0 35 8 49 73 121 39 44 82 97 94 117 12 20 28 41 36 47 7 5 17
23 21 38 l7 29 82 -84 c45 -46 115 -121 156 -166 40 -46 75 -81 77 -79 2 2
-11 35 -30 73 -34 69 -79 213 -92 289 -16 102 -86 335 -142 475 -17 41 -42
104 -56 140 -42 103 -76 168 -120 222 l-40 51 40 77 c94 178 235 377 304 428
59 44 62 56 15 50 l-38 -4 35 30 c40 36 51 43 143 97 38 22 89 45 112 52 24 6
43 17 43 23 0 13 -51 34 -81 34 -11 0 -19 4 -19 8 0 16 161 44 246 43 82 -1
86 0 81 19 -6 24 1 25 77 5 58 -15 71 -13 96 16 8 9 131 89 137 89 3 0 -5 -16
-16 -36 -25 -43 -21 -53 12 -31 43 28 196 76 290 92 160 26 217 30 217 16z
m785 -1327 c-14 -22 -15 -28 -4 -36 9 -5 4 -6 -15 -2 -23 5 -27 4 -21 -6 6
-10 4 -12 -10 -7 -14 6 -16 3 -12 -13 5 -21 -26 -70 -45 -70 -6 0 -5 6 2 15 7
9 10 18 7 21 -6 6 -47 -35 -47 -47 0 -4 -15 -15 -32 -23 l-33 -16 35 30 c19
17 30 30 25 30 -5 0 4 14 20 30 16 17 35 28 43 25 11 -4 13 0 9 16 -3 11 -3
18 0 15 8 -8 54 22 71 46 20 28 26 21 7 -8z m-25 -74 c0 -5 -5 -10 -11 -10 -5
0 -7 5 -4 10 3 6 8 10 11 10 2 0 4 -4 4 -10z m-187 -137 c-5 -12 -3 -14 8 -8
12 8 12 6 0 -9 -9 -11 -17 -14 -24 -7 -7 7 -6 15 3 26 16 20 21 19 13 -2z
m-23 -37 c0 -8 -6 -17 -12 -19 -10 -4 -9 -8 2 -16 13 -9 13 -11 1 -11 -8 0
-32 -19 -53 -42 -39 -43 -55 -40 -17 3 11 13 30 40 41 61 22 39 38 49 38 24z
m7 -244 c17 -11 33 -59 26 -79 -18 -51 -61 -67 -95 -36 -49 44 14 150 69 115z
m-2729 -139 c3 -26 0 -33 -15 -33 -40 1 -72 51 -40 64 31 13 52 1 55 -31z
m-51 -44 c21 -12 41 -27 44 -32 11 -16 -8 -164 -23 -173 -5 -3 -21 22 -35 55
-14 34 -30 61 -35 61 -15 0 -8 -54 12 -90 40 -73 41 -78 24 -120 -26 -66 -36
-57 -110 100 -19 41 -39 82 -44 91 -4 9 -11 37 -15 62 -7 43 -5 46 21 60 16 8
44 18 61 22 18 3 36 11 40 17 4 7 9 4 14 -9 4 -11 25 -31 46 -44z m287 -240
c-9 -16 -34 10 -34 36 0 12 3 25 7 29 10 10 35 -52 27 -65z m2812 -204 c-3 -9
7 -15 29 -19 39 -8 82 -28 145 -69 48 -31 48 -31 -40 -12 -24 5 -24 5 -2 -4
30 -14 28 -24 -8 -38 -28 -10 -36 -8 -81 19 -57 36 -77 33 -24 -3 40 -28 43
-39 15 -57 -15 -9 -26 -10 -40 -2 -31 17 -39 42 -33 111 2 35 4 74 4 87 -1 20
2 21 20 12 11 -7 18 -17 15 -25z m377 -211 c53 -31 97 -60 97 -63 0 -7 -207
-73 -287 -92 -40 -10 -46 -8 -113 31 -39 23 -74 48 -77 56 -10 27 31 78 87
107 49 26 62 28 125 24 64 -5 80 -11 168 -63z m-398 16 c15 -17 16 -24 7 -45
-22 -48 -67 -21 -56 34 7 36 23 39 49 11z m-2459 -83 c33 -44 36 -79 6 -55
-11 9 -9 3 5 -17 41 -60 55 -95 43 -110 -11 -14 -1 -42 28 -73 23 -25 31 -49
27 -75 -3 -14 -1 -37 5 -52 7 -18 7 -24 0 -20 -6 4 -18 1 -26 -6 -12 -9 -13
-9 -9 2 4 11 -4 15 -35 16 -22 1 -40 -2 -40 -8 0 -5 -18 -9 -40 -9 -35 0 -40
-3 -46 -27 -4 -16 -11 -34 -17 -41 -5 -7 -7 -15 -3 -19 3 -4 14 3 24 15 l17
21 37 -41 37 -41 10 24 c6 16 4 35 -5 58 -19 47 -11 50 16 6 13 -20 25 -33 29
-27 19 28 101 42 101 16 0 -6 12 -24 28 -40 15 -16 33 -40 40 -54 32 -63 50
-85 68 -82 16 3 16 1 -5 -17 -18 -15 -28 -18 -42 -11 -23 13 -46 13 -34 1 13
-12 181 -65 319 -101 61 -15 161 -42 221 -60 111 -31 426 -102 543 -122 52 -8
61 -13 51 -24 -9 -11 -8 -14 5 -14 9 0 16 -4 16 -9 0 -15 -164 -4 -285 18 -60
12 -139 26 -175 31 -63 9 -258 52 -330 71 -243 67 -297 79 -286 61 6 -11 43
-23 216 -70 207 -58 399 -104 485 -117 69 -11 180 -38 189 -45 4 -5 4 -16 -2
-26 -9 -16 -10 -16 -21 4 -7 12 -19 22 -28 22 -11 0 -13 -3 -5 -13 13 -15 10
-43 -4 -57 -7 -7 -21 -6 -44 4 -33 14 -34 14 -10 19 14 3 0 4 -30 3 -48 -3
-150 16 -290 54 -19 5 -60 14 -90 21 -30 7 -80 18 -110 26 -30 8 -98 23 -151
33 -153 30 -457 136 -569 200 -25 14 -67 36 -95 49 -82 39 -86 45 -68 97 8 24
17 44 20 44 3 0 54 -25 115 -55 105 -53 138 -64 138 -47 0 4 -55 34 -122 67
-98 48 -124 65 -126 83 -2 12 1 22 7 22 6 0 11 -4 11 -10 0 -13 49 -58 84 -77
43 -23 136 -51 141 -44 2 4 -5 22 -15 39 -11 18 -19 32 -17 32 1 0 26 -9 55
-20 56 -21 106 -28 65 -8 -12 6 -24 21 -27 34 -8 31 -40 48 -65 35 -43 -23
-63 52 -27 98 9 11 8 13 -4 9 -8 -2 -16 -14 -18 -26 -4 -25 -22 -30 -22 -7 0
8 -4 15 -8 15 -4 0 -14 21 -21 46 -12 38 -12 55 0 102 17 74 37 122 50 122 5
0 7 5 4 10 -4 6 -1 17 5 25 6 8 9 18 6 23 -3 5 6 10 20 10 35 0 51 17 33 35
-64 66 -67 81 -19 90 14 2 27 5 30 5 3 1 19 -18 36 -41z m189 -197 c10 -11 13
-20 7 -20 -7 0 -12 -5 -12 -11 0 -6 9 -8 21 -4 19 6 20 5 8 -17 -7 -14 -14
-18 -17 -10 -2 6 -8 12 -14 12 -17 0 -36 32 -30 52 6 23 15 23 37 -2z m77 -60
c12 -11 28 -20 35 -20 7 0 13 -5 13 -11 0 -6 -9 -8 -20 -4 -12 4 -20 2 -20 -5
0 -6 15 -10 34 -8 38 2 61 -12 69 -42 3 -11 4 -20 3 -20 0 0 -15 4 -33 9 -23
7 -33 6 -36 -2 -3 -7 -13 -3 -26 12 -11 13 -24 22 -27 18 -3 -3 4 -15 15 -26
12 -12 21 -29 21 -38 0 -11 -12 0 -30 27 -16 25 -30 41 -30 35 0 -5 -7 3 -15
18 -13 25 -13 31 1 53 20 29 19 29 46 4z m78 -149 c7 -13 7 -22 0 -26 -15 -9
-30 4 -30 26 0 25 16 25 30 0z m-200 -21 c0 -5 -2 -10 -4 -10 -3 0 -8 5 -11
10 -3 6 -1 10 4 10 6 0 11 -4 11 -10z m335 -18 c-7 -8 -35 7 -35 18 0 6 7 6
20 -2 10 -7 17 -14 15 -16z m-405 8 c0 -5 -4 -10 -10 -10 -5 0 -10 5 -10 10 0
6 5 10 10 10 6 0 10 -4 10 -10z m160 -22 c0 -15 -15 -8 -28 12 -12 19 -11 20
8 8 11 -7 20 -16 20 -20z m35 2 c3 -5 1 -10 -4 -10 -6 0 -11 5 -11 10 0 6 2
10 4 10 3 0 8 -4 11 -10z m245 -15 c0 -2 -6 -5 -13 -8 -8 -3 -14 1 -14 8 0 7
6 11 14 8 7 -3 13 -6 13 -8z m-225 -15 c-3 -5 -12 -10 -18 -10 -7 0 -6 4 3 10
19 12 23 12 15 0z m275 -32 c0 -5 -9 -4 -20 2 -11 6 -20 12 -20 14 0 2 9 2 20
-1 11 -3 20 -9 20 -15z m-270 -43 c0 -5 -5 -3 -10 5 -5 8 -10 20 -10 25 0 6 5
3 10 -5 5 -8 10 -19 10 -25z m1201 -365 l44 -20 -37 0 c-21 0 -38 4 -38 9 0 5
-7 12 -16 15 -8 3 -12 2 -9 -4 3 -6 -1 -10 -9 -10 -9 0 -16 7 -16 15 0 21 29
19 81 -5z m-76 -60 c3 -5 -1 -10 -10 -10 -9 0 -13 5 -10 10 3 6 8 10 10 10 2
0 7 -4 10 -10z m65 -20 c13 -8 13 -10 -2 -10 -9 0 -20 5 -23 10 -8 13 5 13 25
0z m-239 -50 c5 0 9 -4 9 -10 0 -5 -11 -10 -25 -10 -16 0 -25 6 -25 16 0 11 5
14 16 10 9 -3 20 -6 25 -6z m-8 -37 c-7 -2 -19 -2 -25 0 -7 3 -2 5 12 5 14 0
19 -2 13 -5z m-945 -416 c29 -34 71 -82 93 -107 47 -52 118 -156 145 -215 10
-22 21 -42 24 -45 9 -7 55 -103 55 -116 0 -6 8 -23 18 -38 15 -21 16 -30 6
-42 -9 -11 -9 -14 1 -14 7 0 10 -6 8 -12 -3 -7 4 -22 15 -33 17 -17 19 -17 14
-2 -4 9 -2 17 4 17 7 0 8 -12 4 -32 -9 -44 -25 -60 -25 -26 0 31 -17 47 -26
24 -10 -26 -69 -21 -82 7 l-11 22 -7 -22 c-3 -13 -14 -23 -24 -23 -14 0 -19
-10 -21 -44 -3 -32 -1 -42 9 -39 6 3 12 0 12 -6 0 -6 -4 -11 -10 -11 -5 0 -10
-9 -10 -19 0 -10 -7 -22 -15 -25 -11 -4 -17 3 -22 24 -3 17 -9 30 -14 30 -12
0 -23 -46 -14 -59 3 -6 1 -11 -4 -11 -6 0 -11 11 -11 25 0 14 -4 25 -10 25 -5
0 -10 -4 -10 -8 0 -5 -9 -18 -19 -29 -11 -11 -21 -38 -23 -59 l-3 -39 -14 43
c-14 42 -41 77 -41 53 0 -6 5 -11 11 -11 5 0 7 -5 4 -10 -7 -12 -28 6 -38 34
-5 12 -3 23 5 28 10 6 10 8 -2 8 -15 0 -90 69 -90 83 0 5 -27 38 -60 74 -33
36 -60 70 -60 75 0 12 -98 105 -132 126 -16 9 -28 21 -28 26 0 8 35 52 94 120
14 16 26 32 26 36 0 3 8 15 18 26 9 10 40 48 67 84 28 35 57 73 66 83 9 10 25
33 35 52 10 19 23 35 29 34 5 0 34 -28 63 -62z m1859 -276 c44 -43 153 -188
153 -204 0 -7 -4 -6 -9 2 -8 12 -12 12 -24 2 -12 -9 -16 -9 -20 1 -4 10 -6 10
-6 0 -1 -7 6 -15 14 -18 8 -4 15 -11 15 -16 0 -6 -6 -5 -15 2 -8 6 -19 9 -25
5 -5 -3 -15 6 -20 20 -11 29 -194 290 -210 300 -5 3 -10 11 -10 16 0 12 111
-65 157 -110z m-687 -24 c16 -13 43 -67 37 -73 -2 -2 -12 5 -22 16 -11 12 -31
20 -52 20 -34 0 -43 16 -21 38 15 15 39 15 58 -1z m810 -247 c0 -5 -7 -7 -15
-4 -8 4 -12 10 -9 15 6 11 24 2 24 -11z"/>
<path d="M3781 4625 c-258 -49 -353 -80 -607 -195 -54 -25 -89 -50 -69 -50 4
0 97 25 208 55 111 30 225 59 252 65 106 24 309 40 513 40 123 0 212 4 212 9
0 24 -273 102 -348 100 -20 0 -93 -11 -161 -24z"/>
<path d="M3770 4277 c0 -22 146 -117 180 -117 20 0 1 18 -63 60 l-62 42 52 -6
c57 -7 81 8 38 24 -40 15 -145 13 -145 -3z"/>
<path d="M3485 4214 c-142 -26 -445 -146 -445 -176 0 -7 -20 -44 -45 -81 -25
-37 -50 -79 -55 -93 -9 -23 -2 -19 47 23 90 78 137 96 94 36 -11 -15 -23 -46
-27 -68 -5 -35 1 -54 50 -150 51 -102 61 -115 120 -158 36 -26 78 -52 95 -58
39 -14 130 1 221 36 l65 26 -62 -6 c-35 -3 -63 -3 -63 1 0 3 28 36 61 72 65
69 99 133 118 220 10 48 9 61 -11 119 -13 38 -38 83 -60 108 -21 24 -38 46
-38 49 0 12 39 6 82 -13 72 -32 122 -75 180 -157 30 -44 66 -88 78 -99 l23
-20 -7 25 c-18 57 -44 158 -50 194 -6 33 -5 38 8 33 60 -23 -80 72 -175 119
-76 38 -88 39 -204 18z m-89 -272 c49 -41 54 -97 13 -141 -29 -31 -62 -27 -98
14 -39 45 -40 78 -2 116 34 33 57 36 87 11z"/>
<path d="M3890 4066 c0 -2 7 -9 15 -16 9 -7 15 -8 15 -2 0 5 -7 12 -15 16 -8
3 -15 4 -15 2z"/>
<path d="M3140 3556 c0 -7 72 -47 77 -43 2 3 -11 14 -30 26 -33 20 -47 25 -47
17z"/>
<path d="M4921 3536 c-8 -9 -11 -19 -7 -23 9 -9 29 13 24 27 -2 8 -8 7 -17 -4z"/>
<path d="M2175 3344 c-26 -15 -34 -24 -22 -24 22 0 77 30 77 42 0 12 -11 8
-55 -18z"/>
<path d="M2490 3316 c0 -4 14 -25 31 -46 17 -21 29 -45 26 -53 -3 -8 3 -21 14
-30 19 -17 27 -57 11 -57 -5 0 -16 -6 -26 -13 -17 -12 -12 -17 45 -51 51 -31
67 -36 81 -27 28 17 102 13 129 -7 13 -10 38 -24 56 -31 19 -8 36 -24 42 -40
9 -24 9 -24 10 -3 1 30 26 28 48 -4 10 -14 33 -43 52 -63 l33 -36 -36 53 c-20
28 -36 54 -36 57 0 11 25 4 44 -12 16 -14 16 -12 -3 9 -40 46 -19 50 49 8 81
-49 102 -52 36 -5 -27 19 -55 35 -62 35 -15 0 -39 28 -31 37 4 3 29 -4 56 -16
56 -24 72 -26 69 -9 -2 6 8 14 22 18 19 5 12 8 -35 14 -33 5 -64 10 -69 13
-17 11 20 23 70 23 58 0 71 7 46 26 -11 8 -21 9 -29 2 -14 -11 -143 -29 -156
-21 -4 3 -1 13 8 23 15 16 14 17 -10 13 -24 -5 -25 -4 -25 50 0 61 -10 75 -62
84 -27 4 -53 -3 -113 -31 -43 -20 -91 -36 -106 -36 -18 0 -29 -5 -29 -14 0
-16 -27 -29 -41 -20 -5 3 -9 12 -9 19 0 18 -62 116 -84 134 -9 7 -16 10 -16 7z
m450 -152 c0 -22 -5 -34 -14 -34 -22 0 -86 29 -86 40 0 5 17 18 38 29 45 23
62 14 62 -35z m-176 -56 c8 -32 -4 -39 -75 -45 -72 -6 -72 2 2 42 55 30 65 31
73 3z"/>
<path d="M3027 3159 c-4 -16 -3 -18 9 -8 7 6 11 15 8 20 -8 13 -11 11 -17 -12z"/>
<path d="M4501 3138 c-27 -28 -54 -99 -49 -129 3 -22 7 -20 61 32 31 31 57 61
57 68 0 7 -5 9 -12 5 -7 -4 -8 -3 -4 5 4 6 11 9 16 6 5 -3 14 4 20 15 10 19 8
20 -29 20 -28 0 -46 -6 -60 -22z m9 -87 c0 -5 -7 -12 -16 -15 -14 -5 -15 -4
-4 9 14 17 20 19 20 6z"/>
<path d="M3245 3040 c-3 -5 -18 -11 -33 -11 -16 -1 -6 -6 26 -12 58 -11 76 -4
46 18 -23 17 -31 18 -39 5z"/>
<path d="M3148 2988 c5 -5 16 -8 23 -6 8 3 3 7 -10 11 -17 4 -21 3 -13 -5z"/>
<path d="M2746 2981 c-3 -5 1 -11 9 -15 9 -3 15 0 15 9 0 16 -16 20 -24 6z"/>
<path d="M3284 2936 c11 -9 26 -16 34 -16 9 0 12 -6 8 -16 -4 -11 -1 -14 11
-12 28 5 26 25 -4 36 -71 26 -70 25 -49 8z"/>
<path d="M2894 2909 c-3 -6 -1 -16 5 -22 8 -8 11 -5 11 11 0 24 -5 28 -16 11z"/>
<path d="M3470 2910 c0 -12 26 -25 65 -34 28 -6 28 -5 -10 18 -44 28 -55 31
-55 16z"/>
<path d="M3208 2875 c32 -27 42 -31 42 -15 0 9 -51 40 -65 40 -4 0 7 -11 23
-25z"/>
<path d="M3046 2825 c-3 -10 -5 -19 -4 -20 11 -9 50 -26 53 -23 2 2 -6 17 -19
32 -20 26 -23 27 -30 11z"/>
<path d="M3856 2831 c5 -5 20 -12 34 -16 22 -7 23 -6 11 9 -7 9 -23 16 -34 16
-13 0 -17 -4 -11 -9z"/>
<path d="M4420 2810 c-12 -8 -11 -10 8 -10 12 0 22 5 22 10 0 13 -11 13 -30 0z"/>
<path d="M3162 2799 c2 -7 10 -15 17 -17 8 -3 12 1 9 9 -2 7 -10 15 -17 17 -8
3 -12 -1 -9 -9z"/>
<path d="M3686 2783 c-5 -16 -262 -155 -306 -166 -9 -2 3 -13 30 -27 l44 -22
158 78 c87 43 158 84 158 91 0 10 -29 35 -67 57 -6 3 -14 -1 -17 -11z"/>
<path d="M4178 2783 c12 -2 32 -2 45 0 12 2 2 4 -23 4 -25 0 -35 -2 -22 -4z"/>
<path d="M3172 2748 c-10 -12 -7 -17 15 -27 21 -10 24 -10 16 1 -6 7 -12 19
-15 27 -3 11 -6 11 -16 -1z"/>
<path d="M4172 2641 c-35 -10 -68 -23 -74 -29 -29 -29 96 -75 154 -56 46 14
92 94 54 94 -7 0 -26 2 -42 5 -16 2 -57 -4 -92 -14z"/>
<path d="M5074 3172 c3 -5 17 -12 32 -15 30 -5 20 8 -15 18 -15 4 -21 3 -17
-3z"/>
<path d="M2578 2828 c16 -16 15 -31 -1 -25 -8 3 -13 -3 -13 -14 0 -24 7 -24
27 -1 13 15 14 22 4 35 -7 10 -16 17 -21 17 -4 0 -3 -5 4 -12z"/>
<path d="M2460 2779 c0 -11 5 -17 10 -14 6 3 10 13 10 21 0 8 -4 14 -10 14 -5
0 -10 -9 -10 -21z"/>
<path d="M2428 2755 c-6 -30 -3 -43 8 -33 3 4 4 19 2 35 l-3 28 -7 -30z"/>
<path d="M2883 2639 c-1 -10 2 -19 8 -19 11 0 12 27 1 34 -4 2 -9 -4 -9 -15z"/>
<path d="M2850 2641 c0 -6 5 -13 10 -16 6 -3 10 1 10 9 0 9 -4 16 -10 16 -5 0
-10 -4 -10 -9z"/>
<path d="M2865 670 c-3 -5 -1 -10 4 -10 6 0 11 5 11 10 0 6 -2 10 -4 10 -3 0
-8 -4 -11 -10z"/>
<path d="M1665 27 c-4 -10 -5 -21 -1 -24 10 -10 18 4 13 24 -4 17 -4 17 -12 0z"/>
</g>
</svg>
